<?xml version="1.0" encoding="UTF-8"?>
<svg width="380px" height="164px" viewBox="0 0 380 164" xmlns="http://www.w3.org/2000/svg" xmlns:xlink="http://www.w3.org/1999/xlink" version="1.1">
 <!-- © 2020 Clover Intelligence Artificielle -->
 <g id="Forme-108">
  <path id="Tracé" d="M171.521 120.365 C169.456 120.971 167.426 121.58 165.375 122.114 164.575 122.322 163.734 122.397 162.905 122.465 161.945 122.543 160.978 122.552 160.014 122.58 158.569 122.621 157.119 122.745 155.681 122.661 154.352 122.584 153.034 122.294 151.715 122.073 150.722 121.907 149.712 121.778 148.749 121.496 147.153 121.03 145.564 120.514 144.017 119.907 142.702 119.391 141.408 118.79 140.179 118.095 138.67 117.241 137.187 116.32 135.785 115.302 133.841 113.892 132.021 112.324 130.371 110.565 129.032 109.138 127.873 107.577 126.731 105.99 125.478 104.25 124.344 102.446 123.452 100.507 122.294 97.989 121.203 95.44 120.653 92.696 120.461 91.737 120.133 90.806 119.928 89.85 119.796 89.234 119.802 88.59 119.696 87.967 119.318 85.744 119.326 83.502 119.398 81.265 119.444 79.861 119.647 78.461 119.814 77.064 119.922 76.157 120.032 75.244 120.248 74.36 120.667 72.636 121.058 70.895 121.65 69.228 122.315 67.357 123.074 65.499 124.004 63.748 124.957 61.954 126.174 60.302 127.261 58.578 128.151 57.167 129.302 55.98 130.425 54.759 132.506 52.494 134.9 50.616 137.454 48.937 139.821 47.38 142.34 46.116 145.012 45.145 147.099 44.388 149.231 43.832 151.412 43.455 152.432 43.279 153.46 43.097 154.492 43.037 156.542 42.917 158.598 42.797 160.649 42.839 161.945 42.865 163.248 43.122 164.525 43.386 166.241 43.74 167.933 44.215 169.533 44.95 170.91 45.582 172.307 46.189 173.619 46.938 175.311 47.904 176.814 49.145 178.251 50.465 180.308 52.354 181.922 54.565 183.056 57.109 183.766 58.702 184.333 60.356 184.517 62.108 184.653 63.395 184.861 64.692 184.817 65.978 184.73 68.524 184.185 70.987 183.145 73.338 182.316 75.212 181.247 76.911 179.907 78.46 178.105 80.543 176.043 82.28 173.566 83.509 171.734 84.418 169.745 83.395 169.344 81.4 169.045 79.915 169.791 78.948 170.785 78.076 171.453 77.49 172.192 76.985 172.863 76.402 173.54 75.814 174.208 75.208 174.818 74.552 176.119 73.15 177.282 71.635 177.791 69.756 178.093 68.64 178.244 67.48 178.428 66.335 178.51 65.823 178.561 65.295 178.533 64.779 178.434 62.975 178.134 61.214 177.373 59.55 176.78 58.251 175.999 57.092 175.054 56.023 172.848 53.523 170.114 51.834 167.006 50.718 165.795 50.284 164.562 49.908 163.326 49.551 162.841 49.411 162.323 49.373 161.817 49.327 160.491 49.208 159.163 49.012 157.839 49.03 156.508 49.048 155.182 49.323 153.85 49.42 152.311 49.532 150.82 49.861 149.346 50.286 147.138 50.923 145.019 51.792 143.005 52.891 141.2 53.875 139.479 54.996 137.924 56.354 137.168 57.015 136.354 57.617 135.653 58.33 134.74 59.259 133.852 60.226 133.066 61.262 132.113 62.517 131.209 63.821 130.413 65.18 129.64 66.499 128.943 67.879 128.374 69.297 127.687 71.007 127.122 72.772 126.6 74.541 126.329 75.456 126.247 76.431 126.113 77.383 125.951 78.532 125.746 79.682 125.701 80.837 125.65 82.172 125.746 83.513 125.791 84.85 125.807 85.317 125.858 85.782 125.895 86.248 126.061 88.336 126.44 90.38 127.033 92.395 127.65 94.491 128.378 96.544 129.439 98.446 130.404 100.177 131.496 101.843 132.614 103.483 133.241 104.404 133.99 105.253 134.76 106.063 135.718 107.072 136.686 108.094 137.774 108.953 139.252 110.12 140.777 111.263 142.411 112.187 144.167 113.18 146.032 114.014 147.925 114.716 149.381 115.257 150.942 115.545 152.478 115.835 153.718 116.069 154.989 116.149 156.249 116.277 157.143 116.368 158.044 116.512 158.935 116.472 160.091 116.42 161.239 116.211 162.39 116.067 163.218 115.963 164.063 115.924 164.87 115.731 166.336 115.383 167.798 114.999 169.228 114.525 171.359 113.818 173.33 112.767 175.174 111.482 176.209 110.761 177.259 110.063 178.288 109.335 178.885 108.913 179.446 108.44 180.037 108.009 181.046 107.276 182.116 107.375 183.14 107.922 184.158 108.466 184.648 109.43 184.718 110.544 184.778 111.497 184.257 112.259 183.58 112.891 183.048 113.388 182.488 113.855 181.935 114.329 180.559 115.508 179.103 116.578 177.518 117.459 176.305 118.134 175.087 118.801 173.843 119.416 173.106 119.78 172.315 120.035 171.521 120.365 Z" fill="#1abc9c" fill-opacity="1" stroke="none"/>
  <path id="Tracé-1" d="M256.794 82.348 C257.374 83.569 257.964 84.748 258.471 85.962 259.076 87.406 259.449 88.919 259.717 90.467 260.085 92.589 260.331 94.715 260.228 96.868 260.18 97.864 260.04 98.858 259.913 99.849 259.792 100.79 259.702 101.742 259.473 102.658 259.15 103.955 258.783 105.25 258.306 106.497 257.45 108.733 256.254 110.806 254.886 112.764 253.836 114.265 252.595 115.617 251.153 116.761 250.114 117.584 249.084 118.427 247.976 119.15 246.254 120.272 244.37 121.092 242.379 121.604 241.192 121.908 239.966 122.07 238.75 122.253 237.986 122.368 237.209 122.463 236.438 122.459 235.542 122.455 234.642 122.362 233.751 122.252 232.916 122.15 232.073 122.035 231.262 121.82 230.131 121.52 229.02 121.138 227.911 120.762 226.262 120.203 224.802 119.281 223.379 118.304 222.914 117.984 222.474 117.62 222.061 117.234 221.081 116.318 220.035 115.451 219.18 114.426 218.18 113.227 217.291 111.921 216.469 110.591 215.393 108.848 214.504 106.999 213.991 105.001 213.61 103.517 213.268 102.023 212.933 100.528 212.575 98.936 212.449 97.312 212.519 95.688 212.575 94.427 212.794 93.173 212.927 91.914 213.09 90.389 213.287 88.864 213.795 87.414 214.311 85.941 214.83 84.455 215.515 83.057 216.4 81.252 217.499 79.568 218.781 77.997 220.495 75.896 222.533 74.177 224.814 72.756 226.699 71.581 228.761 70.758 230.932 70.269 231.956 70.038 233.014 69.937 234.062 69.836 235.204 69.726 236.354 69.602 237.496 69.633 239.12 69.676 240.72 69.967 242.293 70.403 243.988 70.872 245.598 71.555 247.119 72.409 248.228 73.033 249.271 73.791 250.277 74.575 251.143 75.25 251.966 75.998 252.718 76.798 254.165 78.336 255.426 80.024 256.499 81.846 256.592 82.003 256.678 82.163 256.794 82.348 M229.215 114.358 C229.714 114.572 230.197 114.837 230.714 114.99 231.906 115.342 233.099 115.736 234.321 115.93 235.282 116.082 236.29 116.015 237.269 115.946 238.389 115.866 239.531 115.79 240.61 115.51 243.108 114.862 245.328 113.628 247.193 111.84 248.155 110.917 249.048 109.904 249.863 108.848 250.96 107.426 251.817 105.842 252.428 104.151 252.854 102.972 253.191 101.755 253.486 100.535 253.704 99.634 253.875 98.706 253.92 97.783 254.016 95.767 253.858 93.765 253.529 91.766 253.243 90.028 252.714 88.387 252.018 86.782 251.119 84.711 249.93 82.826 248.369 81.198 246.735 79.494 244.899 78.081 242.675 77.172 240.979 76.478 239.232 76.057 237.43 75.941 236.259 75.866 235.067 76.021 233.891 76.136 232.306 76.291 230.806 76.792 229.376 77.471 226.989 78.604 225.046 80.285 223.405 82.351 221.812 84.356 220.683 86.596 219.882 89.008 219.595 89.873 219.421 90.779 219.236 91.675 219.063 92.517 218.859 93.367 218.82 94.22 218.725 96.306 218.846 98.387 219.228 100.448 219.54 102.133 220.072 103.748 220.799 105.295 221.534 106.86 222.478 108.291 223.533 109.666 224.582 111.033 225.86 112.134 227.201 113.173 227.79 113.629 228.47 113.967 229.215 114.358 Z" fill="#1abc9c" fill-opacity="1" stroke="none"/>
  <path id="Tracé-2" d="M198.085 106.776 C198.085 88.871 198.088 71.019 198.081 53.167 198.08 51.687 197.991 50.207 197.986 48.726 197.982 47.656 197.991 46.579 198.1 45.515 198.24 44.146 199.382 43.054 200.782 43.013 201.783 42.983 202.683 43.141 203.408 43.906 203.985 44.515 204.267 45.248 204.27 46.057 204.289 50.293 204.279 54.529 204.279 58.765 L204.279 115.311 C204.279 116.049 204.402 116.174 205.13 116.174 206.589 116.174 208.049 116.182 209.508 116.172 211.011 116.16 212.587 117.545 212.526 119.17 212.481 120.353 212.172 121.324 211.139 121.95 210.794 122.159 210.377 122.293 209.977 122.354 209.377 122.444 208.763 122.469 208.155 122.47 203.438 122.478 198.721 122.479 194.005 122.471 193.102 122.469 192.195 122.451 191.351 122.048 189.596 121.208 189.244 119.028 190.134 117.563 190.773 116.511 191.816 116.129 192.964 116.081 194.404 116.022 195.847 116.067 197.289 116.067 197.999 116.067 198.083 115.989 198.084 115.266 198.088 113.237 198.085 111.208 198.085 109.179 198.085 108.396 198.085 107.613 198.085 106.776 Z" fill="#1abc9c" fill-opacity="1" stroke="none"/>
 </g>
</svg>
