<?xml version="1.0" encoding="UTF-8"?>
<svg width="380px" height="164px" viewBox="0 0 380 164" xmlns="http://www.w3.org/2000/svg" xmlns:xlink="http://www.w3.org/1999/xlink" version="1.1">
 <!-- © 2020 Clover Intelligence Artificielle -->
 <g id="Forme-108">
  <path id="Tracé" d="M96.521 120.365 C94.456 120.971 92.426 121.58 90.375 122.114 89.575 122.322 88.734 122.397 87.905 122.465 86.945 122.543 85.978 122.552 85.014 122.58 83.569 122.621 82.119 122.745 80.681 122.661 79.352 122.584 78.034 122.294 76.715 122.073 75.722 121.907 74.712 121.778 73.749 121.496 72.153 121.03 70.564 120.514 69.017 119.907 67.702 119.391 66.408 118.79 65.179 118.095 63.67 117.241 62.187 116.32 60.785 115.302 58.841 113.892 57.021 112.324 55.371 110.565 54.032 109.138 52.873 107.577 51.731 105.99 50.478 104.25 49.344 102.446 48.452 100.507 47.294 97.989 46.203 95.44 45.653 92.696 45.461 91.737 45.133 90.806 44.928 89.85 44.796 89.234 44.802 88.59 44.696 87.967 44.318 85.744 44.326 83.502 44.399 81.265 44.444 79.861 44.647 78.461 44.814 77.064 44.922 76.157 45.032 75.244 45.248 74.36 45.667 72.636 46.058 70.895 46.65 69.228 47.315 67.357 48.074 65.499 49.004 63.748 49.957 61.954 51.174 60.302 52.261 58.578 53.151 57.167 54.302 55.98 55.425 54.759 57.506 52.494 59.9 50.616 62.454 48.937 64.821 47.38 67.34 46.116 70.012 45.145 72.099 44.388 74.231 43.832 76.412 43.455 77.432 43.279 78.46 43.097 79.492 43.037 81.542 42.917 83.598 42.797 85.649 42.839 86.945 42.865 88.248 43.122 89.525 43.386 91.241 43.74 92.933 44.215 94.533 44.95 95.91 45.582 97.307 46.189 98.619 46.938 100.311 47.904 101.814 49.145 103.251 50.465 105.308 52.354 106.922 54.565 108.056 57.109 108.766 58.702 109.333 60.356 109.517 62.108 109.653 63.395 109.861 64.692 109.817 65.978 109.73 68.524 109.185 70.987 108.145 73.338 107.316 75.212 106.247 76.911 104.907 78.46 103.105 80.543 101.043 82.28 98.566 83.509 96.734 84.418 94.745 83.395 94.344 81.4 94.045 79.915 94.791 78.948 95.785 78.076 96.453 77.49 97.192 76.985 97.863 76.402 98.54 75.814 99.208 75.208 99.818 74.552 101.119 73.15 102.282 71.635 102.791 69.756 103.093 68.64 103.244 67.48 103.428 66.335 103.51 65.823 103.561 65.295 103.533 64.779 103.434 62.975 103.134 61.214 102.373 59.55 101.78 58.251 100.999 57.092 100.054 56.023 97.848 53.523 95.114 51.834 92.006 50.718 90.795 50.284 89.562 49.908 88.326 49.551 87.841 49.411 87.323 49.373 86.817 49.327 85.491 49.208 84.163 49.012 82.839 49.03 81.508 49.048 80.182 49.323 78.85 49.42 77.311 49.532 75.82 49.861 74.346 50.286 72.138 50.923 70.019 51.792 68.005 52.891 66.2 53.875 64.479 54.996 62.924 56.354 62.168 57.015 61.354 57.617 60.653 58.33 59.74 59.259 58.852 60.226 58.066 61.262 57.113 62.517 56.209 63.821 55.413 65.18 54.64 66.499 53.943 67.879 53.374 69.297 52.687 71.007 52.122 72.772 51.6 74.541 51.329 75.456 51.247 76.431 51.113 77.383 50.951 78.532 50.746 79.682 50.701 80.837 50.65 82.172 50.746 83.513 50.791 84.85 50.807 85.317 50.858 85.782 50.895 86.248 51.061 88.336 51.44 90.38 52.033 92.395 52.65 94.491 53.378 96.544 54.439 98.446 55.404 100.177 56.496 101.843 57.614 103.483 58.241 104.404 58.99 105.253 59.76 106.063 60.718 107.072 61.686 108.094 62.774 108.953 64.252 110.12 65.777 111.263 67.411 112.187 69.167 113.18 71.032 114.014 72.925 114.716 74.381 115.257 75.942 115.545 77.478 115.835 78.718 116.069 79.989 116.149 81.249 116.277 82.143 116.368 83.044 116.512 83.935 116.472 85.091 116.42 86.239 116.211 87.39 116.067 88.218 115.963 89.063 115.924 89.87 115.731 91.336 115.383 92.798 114.999 94.228 114.525 96.359 113.818 98.33 112.767 100.174 111.482 101.209 110.761 102.259 110.063 103.288 109.335 103.885 108.913 104.446 108.44 105.037 108.009 106.046 107.276 107.116 107.375 108.14 107.922 109.158 108.466 109.648 109.43 109.718 110.544 109.778 111.497 109.257 112.259 108.58 112.891 108.048 113.388 107.488 113.855 106.935 114.329 105.559 115.508 104.103 116.578 102.518 117.459 101.305 118.134 100.087 118.801 98.843 119.416 98.106 119.78 97.315 120.035 96.521 120.365 Z" fill="#1abc9c" fill-opacity="1" stroke="none"/>
  <path id="Tracé-1" d="M234.468 98.553 C234.468 97.159 234.399 95.814 234.489 94.479 234.57 93.264 234.745 92.043 235.022 90.859 235.365 89.396 235.744 87.923 236.313 86.538 236.969 84.942 237.821 83.422 238.648 81.901 238.96 81.325 239.408 80.811 239.848 80.317 240.758 79.296 241.67 78.271 242.645 77.313 243.76 76.218 245.047 75.339 246.419 74.581 247.941 73.74 249.518 73.032 251.201 72.593 252.3 72.307 253.408 72.021 254.531 71.877 255.789 71.715 257.07 71.631 258.336 71.666 259.58 71.7 260.832 71.852 262.053 72.092 263.152 72.307 264.261 72.603 265.278 73.057 266.588 73.642 267.854 74.354 269.06 75.134 270.366 75.979 271.597 76.951 272.622 78.14 274.631 80.468 276.198 83.033 276.988 86.05 277.372 87.517 277.622 88.981 277.748 90.494 277.869 91.955 277.751 93.316 277.104 94.639 276.508 95.856 275.535 96.55 274.247 96.838 273.881 96.92 273.495 96.947 273.118 96.947 265.466 96.953 257.813 96.958 250.16 96.946 248.717 96.944 247.667 96.088 247.289 95.128 246.692 93.611 247.26 92.056 248.237 91.397 248.763 91.042 249.473 90.788 250.101 90.784 256.882 90.742 263.663 90.758 270.444 90.758 270.604 90.758 270.77 90.786 270.923 90.753 271.52 90.624 271.608 90.449 271.418 89.857 271.025 88.632 270.631 87.407 270.244 86.179 269.829 84.864 269.066 83.742 268.203 82.704 267.007 81.267 265.591 80.081 263.863 79.3 262.481 78.675 261.067 78.205 259.532 78.148 258.954 78.127 258.379 77.952 257.805 77.958 257.068 77.966 256.33 78.062 255.598 78.163 254.763 78.278 253.919 78.38 253.108 78.596 251.236 79.095 249.49 79.895 247.948 81.082 247.154 81.693 246.36 82.326 245.671 83.049 244.01 84.791 242.799 86.842 241.962 89.087 241.501 90.325 241.176 91.621 240.896 92.914 240.717 93.733 240.722 94.594 240.665 95.437 240.614 96.205 240.564 96.974 240.561 97.742 240.553 99.385 240.875 100.98 241.301 102.559 241.85 104.593 242.782 106.455 243.956 108.184 245.481 110.431 247.426 112.259 249.721 113.726 251.313 114.743 253.045 115.44 254.84 115.928 256.109 116.273 257.455 116.371 258.776 116.477 259.843 116.562 260.927 116.561 261.995 116.481 264.798 116.274 267.36 115.398 269.668 113.735 271.003 112.773 272.456 111.975 273.864 111.115 274.742 110.579 275.596 110.668 276.419 111.261 277.302 111.897 277.905 112.701 277.815 113.84 277.746 114.705 277.289 115.43 276.712 116.046 275.405 117.442 273.888 118.584 272.247 119.564 270.511 120.601 268.688 121.45 266.731 121.969 265.616 122.264 264.483 122.549 263.341 122.665 261.724 122.828 260.092 122.867 258.466 122.892 256.637 122.92 254.859 122.518 253.11 122.037 251.214 121.517 249.397 120.759 247.692 119.787 246.586 119.157 245.551 118.391 244.532 117.623 243.61 116.929 242.696 116.206 241.885 115.39 241.01 114.511 240.177 113.566 239.473 112.548 238.548 111.21 237.682 109.815 236.946 108.366 236.008 106.52 235.356 104.559 234.986 102.502 234.753 101.208 234.373 99.942 234.468 98.553 Z" fill="#1abc9c" fill-opacity="1" stroke="none"/>
  <path id="Tracé-2" d="M181.794 82.348 C182.374 83.569 182.964 84.748 183.471 85.962 184.076 87.406 184.449 88.919 184.717 90.467 185.085 92.589 185.331 94.715 185.227 96.868 185.18 97.864 185.04 98.858 184.913 99.849 184.792 100.79 184.702 101.742 184.473 102.658 184.15 103.955 183.783 105.25 183.306 106.497 182.45 108.733 181.254 110.806 179.886 112.764 178.836 114.265 177.595 115.617 176.153 116.761 175.114 117.584 174.084 118.427 172.976 119.15 171.254 120.272 169.37 121.092 167.379 121.604 166.192 121.908 164.966 122.07 163.75 122.253 162.986 122.368 162.209 122.463 161.438 122.459 160.542 122.455 159.642 122.362 158.751 122.252 157.916 122.15 157.073 122.035 156.262 121.82 155.131 121.52 154.02 121.138 152.911 120.762 151.262 120.203 149.802 119.281 148.379 118.304 147.914 117.984 147.474 117.62 147.061 117.234 146.081 116.318 145.035 115.451 144.18 114.426 143.18 113.227 142.291 111.921 141.469 110.591 140.393 108.848 139.504 106.999 138.991 105.001 138.61 103.517 138.268 102.023 137.933 100.528 137.575 98.936 137.449 97.312 137.519 95.688 137.575 94.427 137.794 93.173 137.927 91.914 138.09 90.389 138.287 88.864 138.795 87.414 139.311 85.941 139.83 84.455 140.515 83.057 141.4 81.252 142.499 79.568 143.781 77.997 145.495 75.896 147.533 74.177 149.814 72.756 151.699 71.581 153.761 70.758 155.932 70.269 156.956 70.038 158.014 69.937 159.062 69.836 160.204 69.726 161.354 69.602 162.496 69.633 164.12 69.676 165.72 69.967 167.293 70.403 168.988 70.872 170.598 71.555 172.119 72.409 173.228 73.033 174.271 73.791 175.277 74.575 176.143 75.25 176.966 75.998 177.718 76.798 179.165 78.336 180.426 80.024 181.499 81.846 181.592 82.003 181.678 82.163 181.794 82.348 M154.215 114.358 C154.714 114.572 155.197 114.837 155.714 114.99 156.906 115.342 158.099 115.736 159.321 115.93 160.282 116.082 161.29 116.015 162.269 115.946 163.389 115.866 164.531 115.79 165.61 115.51 168.108 114.862 170.328 113.628 172.193 111.84 173.155 110.917 174.048 109.904 174.863 108.848 175.96 107.426 176.817 105.842 177.428 104.151 177.854 102.972 178.191 101.755 178.486 100.535 178.704 99.634 178.875 98.706 178.92 97.783 179.016 95.767 178.858 93.765 178.529 91.766 178.243 90.028 177.714 88.387 177.018 86.782 176.119 84.711 174.93 82.826 173.369 81.198 171.735 79.494 169.899 78.081 167.675 77.172 165.979 76.478 164.232 76.057 162.43 75.941 161.259 75.866 160.067 76.021 158.891 76.136 157.306 76.291 155.806 76.792 154.376 77.471 151.989 78.604 150.046 80.285 148.405 82.351 146.812 84.356 145.683 86.596 144.882 89.008 144.595 89.873 144.421 90.779 144.236 91.675 144.063 92.517 143.859 93.367 143.82 94.22 143.725 96.306 143.846 98.387 144.228 100.448 144.54 102.133 145.072 103.748 145.799 105.295 146.534 106.86 147.478 108.291 148.533 109.666 149.582 111.033 150.86 112.134 152.201 113.173 152.79 113.629 153.47 113.967 154.215 114.358 Z" fill="#1abc9c" fill-opacity="1" stroke="none"/>
  <path id="Tracé-3" d="M225.738 77.97 C225.97 77.597 225.948 77.401 225.47 77.405 223.779 77.416 222.088 77.441 220.398 77.396 219.445 77.371 218.565 77.117 217.81 76.421 216.702 75.401 216.747 73.532 217.443 72.377 217.966 71.509 218.795 71.14 219.731 71.123 223.525 71.052 227.32 70.978 231.113 71.028 232.82 71.051 234.176 72.156 234.13 74.062 234.119 74.509 233.937 74.973 233.749 75.392 233.083 76.879 232.373 78.346 231.693 79.827 230.677 82.039 229.669 84.256 228.662 86.473 227.853 88.256 227.052 90.042 226.245 91.826 225.315 93.879 224.383 95.932 223.451 97.984 222.532 100.006 221.617 102.03 220.691 104.048 219.915 105.739 219.12 107.42 218.344 109.11 217.398 111.174 216.466 113.245 215.522 115.309 214.686 117.135 213.831 118.952 213.008 120.782 212.547 121.806 211.706 122.296 210.666 122.34 209.964 122.37 209.27 122.119 208.641 121.71 207.943 121.254 207.682 120.52 207.359 119.847 206.749 118.573 206.237 117.251 205.679 115.952 204.848 114.018 204.016 112.084 203.177 110.154 202.482 108.555 201.765 106.966 201.076 105.364 200.342 103.657 199.636 101.938 198.904 100.23 198.38 99.006 197.827 97.793 197.3 96.57 196.583 94.909 195.883 93.241 195.168 91.58 194.563 90.175 193.938 88.779 193.335 87.373 192.622 85.711 191.933 84.038 191.214 82.378 190.756 81.322 190.237 80.291 189.79 79.23 189.114 77.624 188.323 76.044 187.864 74.374 187.406 72.707 188.335 71.144 190.238 70.801 191.853 70.51 192.88 71.06 193.585 72.584 194.51 74.583 195.352 76.621 196.241 78.638 196.871 80.068 197.534 81.483 198.156 82.917 199.065 85.014 199.942 87.125 200.847 89.224 201.577 90.915 202.34 92.592 203.069 94.284 204.012 96.474 204.923 98.678 205.87 100.866 206.556 102.451 207.295 104.013 207.979 105.599 208.643 107.139 209.259 108.699 209.912 110.244 210.033 110.53 210.25 110.773 210.385 111.054 210.536 111.37 210.648 111.295 210.759 111.046 211.332 109.771 211.9 108.493 212.469 107.216 212.945 106.149 213.418 105.082 213.895 104.016 214.85 101.884 215.8 99.75 216.767 97.623 217.407 96.215 218.085 94.824 218.725 93.415 219.717 91.228 220.684 89.029 221.675 86.842 222.259 85.553 222.879 84.28 223.466 82.992 224.223 81.331 224.964 79.662 225.738 77.97 Z" fill="#1abc9c" fill-opacity="1" stroke="none"/>
  <path id="Tracé-4" d="M123.085 106.776 C123.085 88.871 123.088 71.019 123.081 53.167 123.08 51.687 122.991 50.207 122.986 48.726 122.982 47.656 122.991 46.579 123.1 45.515 123.24 44.146 124.382 43.054 125.782 43.013 126.783 42.983 127.683 43.141 128.408 43.906 128.985 44.515 129.267 45.248 129.27 46.057 129.289 50.293 129.279 54.529 129.279 58.765 L129.279 115.311 C129.279 116.049 129.402 116.174 130.13 116.174 131.589 116.174 133.049 116.182 134.508 116.172 136.011 116.16 137.587 117.545 137.526 119.17 137.481 120.353 137.172 121.324 136.139 121.95 135.794 122.159 135.377 122.293 134.977 122.354 134.377 122.444 133.763 122.469 133.155 122.47 128.438 122.478 123.721 122.479 119.005 122.471 118.102 122.469 117.195 122.451 116.351 122.048 114.596 121.208 114.244 119.028 115.134 117.563 115.773 116.511 116.816 116.129 117.964 116.081 119.404 116.022 120.847 116.067 122.289 116.067 122.999 116.067 123.083 115.989 123.084 115.266 123.088 113.237 123.085 111.208 123.085 109.179 123.085 108.396 123.085 107.613 123.085 106.776 Z" fill="#1abc9c" fill-opacity="1" stroke="none"/>
  <path id="Tracé-5" d="M297.154 75.807 L297.154 115.317 C297.154 116.088 297.239 116.174 298.002 116.174 299.373 116.174 300.744 116.152 302.114 116.179 303.923 116.215 305.071 117.034 305.445 118.819 305.761 120.324 305.254 121.664 303.334 122.248 302.82 122.405 302.258 122.464 301.718 122.465 296.468 122.481 291.218 122.488 285.967 122.465 284.692 122.459 283.526 122.095 282.946 120.804 282.224 119.197 282.835 117.253 284.39 116.509 284.654 116.382 284.964 116.299 285.256 116.29 286.967 116.236 288.679 116.184 290.391 116.19 290.887 116.191 291.012 115.96 291.065 115.573 291.081 115.45 291.067 115.324 291.067 115.199 291.067 101.353 291.057 87.506 291.082 73.66 291.084 72.163 291.797 71.282 293.353 70.988 294.485 70.774 295.467 70.924 296.334 71.722 296.867 72.211 297.109 72.824 297.145 73.512 297.185 74.257 297.154 75.006 297.154 75.807 Z" fill="#1abc9c" fill-opacity="1" stroke="none"/>
  <path id="Tracé-6" d="M315.416 81.36 C314.024 82.942 312.897 84.64 312.22 86.601 311.751 87.958 311.31 89.328 310.949 90.716 310.741 91.517 310.757 92.374 310.601 93.192 310.356 94.472 309.476 95.252 308.136 95.478 306.98 95.673 306.076 95.164 305.315 94.522 304.777 94.068 304.514 93.245 304.533 92.473 304.574 90.764 304.736 89.074 305.134 87.393 305.561 85.594 306.182 83.881 306.987 82.232 307.752 80.666 308.761 79.255 309.91 77.944 310.502 77.27 311.034 76.54 311.659 75.899 312.314 75.227 313.015 74.587 313.756 74.012 315.419 72.721 317.185 71.566 319.139 70.778 320.695 70.151 322.313 69.667 323.927 69.196 326.35 68.489 328.849 68.431 331.343 68.569 332.364 68.625 333.411 68.815 334.229 69.574 335.088 70.37 335.099 71.384 334.882 72.393 334.594 73.737 333.708 74.622 332.372 74.892 331.605 75.046 330.785 74.945 329.989 74.951 329.272 74.957 328.546 74.886 327.838 74.969 326.855 75.083 325.874 75.266 324.91 75.496 323.099 75.927 321.419 76.681 319.821 77.639 318.159 78.636 316.75 79.924 315.416 81.36 Z" fill="#1abc9c" fill-opacity="1" stroke="none"/>
 </g>
</svg>
